<svg width="96" height="96" viewBox="0 0 96 96" fill="none" xmlns="http://www.w3.org/2000/svg">
  <rect width="96" height="96" rx="48" fill="#12100E"/>
  <circle cx="48" cy="48" r="42" fill="#1A1512" stroke="#C5A880" stroke-width="4"/>
  <path d="M30 45C30 36.716 36.716 30 45 30H51C59.284 30 66 36.716 66 45V55C66 63.284 59.284 70 51 70H45C36.716 70 30 63.284 30 55V45Z" fill="#C5A880"/>
  <path d="M39 50C40.657 50 42 48.657 42 47C42 45.343 40.657 44 39 44C37.343 44 36 45.343 36 47C36 48.657 37.343 50 39 50Z" fill="#12100E"/>
  <path d="M57 50C58.657 50 60 48.657 60 47C60 45.343 58.657 44 57 44C55.343 44 54 45.343 54 47C54 48.657 55.343 50 57 50Z" fill="#12100E"/>
  <path d="M42 58H54" stroke="#12100E" stroke-width="4" stroke-linecap="round"/>
  <path d="M48 24V18" stroke="#C5A880" stroke-width="5" stroke-linecap="round"/>
  <circle cx="48" cy="15" r="4" fill="#C5A880"/>
  <path d="M25 49H20" stroke="#C5A880" stroke-width="5" stroke-linecap="round"/>
  <path d="M76 49H71" stroke="#C5A880" stroke-width="5" stroke-linecap="round"/>
  <path d="M26 75L36 65" stroke="#C5A880" stroke-width="4" stroke-linecap="round"/>
  <path d="M70 75L60 65" stroke="#C5A880" stroke-width="4" stroke-linecap="round"/>
</svg>
